<?xml version="1.0" encoding="UTF-8"?>
<svg version="1.1" xmlns="http://www.w3.org/2000/svg" width="512" height="512">
<path d="M0 0 C3.45327052 3.42775972 5.53043121 7.61969899 7.6875 11.93359375 C8.02663422 12.59937943 8.36576843 13.2651651 8.71517944 13.9511261 C9.43948509 15.37381555 10.16137721 16.79773593 10.88104248 18.22277832 C12.77502705 21.97148961 14.68820737 25.71036637 16.6015625 29.44921875 C16.98059723 30.19056061 17.35963196 30.93190247 17.75015259 31.69570923 C20.86233162 37.76728867 24.08168685 43.77464096 27.375 49.75 C28.3151219 51.46483403 29.25522633 53.17967763 30.1953125 54.89453125 C31.6509931 57.54679573 33.10922787 60.19753904 34.57324219 62.84521484 C36.14662314 65.70169035 37.70004814 68.5682588 39.25 71.4375 C39.72872559 72.29633789 40.20745117 73.15517578 40.70068359 74.04003906 C41.13461426 74.85053711 41.56854492 75.66103516 42.015625 76.49609375 C42.40008789 77.19919678 42.78455078 77.9022998 43.18066406 78.62670898 C44.27708213 81.80259697 44.12841146 84.66762155 44 88 C43.21463867 88.41773682 42.42927734 88.83547363 41.62011719 89.26586914 C38.64449566 90.85008375 35.67003845 92.43644568 32.69628906 94.02416992 C31.42069182 94.70469113 30.14466513 95.3844081 28.86816406 96.06323242 C25.15221639 98.03970695 21.44739714 100.03500034 17.75305176 102.05157471 C16.1092494 102.94089456 14.45294917 103.8070032 12.79589844 104.67138672 C4.86206492 108.98012397 -1.06317408 114.49030728 -7.25 121 C-9.10449615 122.92146406 -10.96631597 124.8355975 -12.828125 126.75 C-13.70847412 127.65572754 -14.58882324 128.56145508 -15.49584961 129.49462891 C-18.84919733 132.84961129 -22.37747536 135.94211392 -26 139 C-27.08371041 139.94860593 -28.1658109 140.89905504 -29.24609375 141.8515625 C-57.4305949 166.44065436 -88.5064294 184.26156627 -122.06982422 200.57421875 C-124.0514875 201.5384675 -126.02960447 202.51003322 -128.00439453 203.48828125 C-130.92978292 204.93216495 -133.86828801 206.34496838 -136.8125 207.75 C-137.67713867 208.18086914 -138.54177734 208.61173828 -139.43261719 209.05566406 C-145.98510015 212.11517932 -153.03308737 213.71135241 -160.09667969 211.27758789 C-165.31616478 208.54116553 -168.73964304 204.3622321 -171 199 C-171.1953125 196.640625 -171.1953125 196.640625 -171.125 194.25 C-171.10695313 193.45078125 -171.08890625 192.6515625 -171.0703125 191.828125 C-171.04710937 191.22484375 -171.02390625 190.6215625 -171 190 C-171.88147705 190.33322266 -172.7629541 190.66644531 -173.67114258 191.00976562 C-176.98917818 192.25421934 -180.3124496 193.48208856 -183.64038086 194.69970703 C-185.07113441 195.22685215 -186.49960737 195.76023547 -187.92553711 196.30029297 C-197.9589174 200.09404392 -207.26716108 203.30951801 -217.8125 199.4375 C-224.10881421 196.20486641 -227.63364568 191.77828332 -229.9375 185.125 C-231.25902337 180.11550445 -230.89954503 176.07016291 -230 171 C-231.58357459 171.31127516 -233.16684993 171.62407289 -234.75 171.9375 C-235.63171875 172.11152344 -236.5134375 172.28554688 -237.421875 172.46484375 C-238.9274706 172.7773689 -240.42818243 173.12283922 -241.90625 173.546875 C-249.10173505 175.10410684 -257.81772258 175.30167147 -264.25390625 171.3984375 C-269.35980208 167.3091518 -273.81385418 162.589699 -275 156 C-275.75644883 147.70707945 -274.4567998 141.65010256 -269.8125 134.75 C-262.92899224 128.01945908 -253.6581966 126.33169646 -244.60546875 123.99609375 C-243.20815221 123.62863795 -241.81104573 123.26038253 -240.41413879 122.89137268 C-236.7527232 121.92636492 -233.08865927 120.97183045 -229.42388916 120.01965332 C-225.72305386 119.05629077 -222.02468348 118.08356638 -218.32617188 117.11132812 C-214.15119729 116.01423911 -209.97602336 114.91799163 -205.7988739 113.82920837 C-198.51991417 111.93087895 -191.25176668 109.99983395 -184 108 C-184.485896 107.51450684 -184.97179199 107.02901367 -185.47241211 106.52880859 C-186.69427214 105.30607891 -187.91274414 104.07995964 -189.12890625 102.8515625 C-190.58088437 101.41474073 -192.09222809 100.03779906 -193.625 98.6875 C-199.0830282 92.51131019 -202.10642667 85.08260864 -202.25 76.875 C-202.27578125 76.00617188 -202.3015625 75.13734375 -202.328125 74.2421875 C-201.41603871 65.22990632 -197.79456481 58.3834085 -192.75 51 C-192.16734375 50.12859375 -191.5846875 49.2571875 -190.984375 48.359375 C-189.84122486 46.65485649 -188.69237083 44.95414577 -187.53710938 43.2578125 C-186.26507141 41.38935521 -185.01008516 39.51183864 -183.765625 37.625 C-180.46619615 32.71965445 -177.41064238 28.70532119 -172 26 C-170.29297265 25.93003986 -168.58331997 25.91559846 -166.875 25.9375 C-165.96492188 25.94652344 -165.05484375 25.95554687 -164.1171875 25.96484375 C-163.41851562 25.97644531 -162.71984375 25.98804688 -162 26 C-161.85304688 25.40832031 -161.70609375 24.81664062 -161.5546875 24.20703125 C-161.33039063 23.41683594 -161.10609375 22.62664062 -160.875 21.8125 C-160.66617188 21.03519531 -160.45734375 20.25789063 -160.2421875 19.45703125 C-157.87026083 14.76539014 -154.40527069 12.50790961 -149.6171875 10.77734375 C-148.38226563 10.50019531 -147.14734375 10.22304687 -145.875 9.9375 C-145.19195801 9.78249023 -144.50891602 9.62748047 -143.80517578 9.46777344 C-142.32516094 9.13696609 -140.84311111 8.81515991 -139.359375 8.50146484 C-136.90053304 7.97885915 -134.45094797 7.42164729 -132 6.86328125 C-130.29213899 6.49001978 -128.58381018 6.11889174 -126.875 5.75 C-126.10140137 5.57460693 -125.32780273 5.39921387 -124.53076172 5.21850586 C-111.03243667 2.43894422 -101.20141587 3.89055668 -89 10.25 C-75.97812753 16.86266961 -61.02693731 24.21085345 -46 21 C-37.19636394 18.11522645 -29.14413747 13.19108984 -21.07421875 8.73046875 C-20.08365479 8.18422852 -19.09309082 7.63798828 -18.07250977 7.07519531 C-16.13945735 6.00115277 -14.21379972 4.91366799 -12.29663086 3.81152344 C-11.4175708 3.31555664 -10.53851074 2.81958984 -9.6328125 2.30859375 C-8.85824707 1.86314209 -8.08368164 1.41769043 -7.28564453 0.95874023 C-4.53392903 -0.1954989 -2.94873263 -0.54743786 0 0 Z M-150 43 C-150.30292969 43.75023437 -150.60585938 44.50046875 -150.91796875 45.2734375 C-153.03562315 50.44703009 -155.20153758 55.46241919 -157.875 60.375 C-159.34494498 63.30552724 -159.99489976 64.93369693 -160.25 68.25 C-157.19894405 74.96232308 -150.05786609 78.33656427 -143.625 81.25 C-142.92117188 81.58773437 -142.21734375 81.92546875 -141.4921875 82.2734375 C-133.08572007 86.16986584 -123.92337872 88.71584595 -114.8125 85.875 C-110.68837292 84.1419038 -108.78833668 82.19870352 -107 78 C-106.26321886 69.9875051 -110.07852854 62.70411514 -114.91015625 56.578125 C-121.28425364 49.68345704 -129.55141647 44.31189381 -139 43 C-140.93651019 42.93466565 -142.87502861 42.91415697 -144.8125 42.9375 C-145.78832031 42.94652344 -146.76414062 42.95554687 -147.76953125 42.96484375 C-148.50558594 42.97644531 -149.24164063 42.98804688 -150 43 Z " fill="#000000" transform="translate(436,239)"/>
<path d="M0 0 C3.92489765 2.87502791 7.08148323 6.33976668 8.625 11 C8.78535499 14.00794926 8.74128836 16.99103873 8.625 20 C9.50124023 19.66677734 10.37748047 19.33355469 11.28027344 18.99023438 C14.58481282 17.74438905 17.89504098 16.51677019 21.21044922 15.30029297 C22.63459953 14.77374608 24.05625446 14.24039152 25.47509766 13.69970703 C35.14281953 10.02228848 44.50301235 6.6143526 54.80859375 10.06640625 C61.87335545 14.75584079 66.62203372 19.36793703 68.421875 27.8671875 C68.78118639 31.63995705 68.26210153 35.28070457 67.625 39 C69.20857459 38.68872484 70.79184993 38.37592711 72.375 38.0625 C73.25671875 37.88847656 74.1384375 37.71445313 75.046875 37.53515625 C77.52202035 37.0559446 77.52202035 37.0559446 79.5 36.45703125 C86.24396243 35.00658345 95.17160554 34.49193665 101.25 38.125 C107.50655024 42.98366591 110.92051536 48.32981914 112.625 56 C113.44300195 63.36201751 111.65483337 69.69444732 107.36328125 75.79296875 C103.69892978 79.53426198 99.24215604 80.93623748 94.33203125 82.4050293 C93.27472557 82.72785779 93.27472557 82.72785779 92.19606018 83.05720806 C84.86295094 85.27325219 77.47114629 87.26133741 70.0625 89.20703125 C68.65038968 89.58071831 67.23836339 89.95472301 65.82641602 90.32902527 C62.17123408 91.29711599 58.51495395 92.26098937 54.85839844 93.22387695 C51.1028199 94.21367799 47.34833704 95.20761779 43.59375 96.20117188 C36.27187763 98.13808322 28.94883577 100.07052426 21.625 102 C22.54079834 102.7890271 22.54079834 102.7890271 23.47509766 103.59399414 C24.27995605 104.29645264 25.08481445 104.99891113 25.9140625 105.72265625 C26.71021973 106.41367432 27.50637695 107.10469238 28.32666016 107.81665039 C35.61485662 114.74020478 39.66168759 123.41499493 40 133.4375 C40.09201953 143.2375804 35.75062445 151.13204057 30.375 159 C29.79234375 159.87140625 29.2096875 160.7428125 28.609375 161.640625 C27.46622486 163.34514351 26.31737083 165.04585423 25.16210938 166.7421875 C23.89007141 168.61064479 22.63508516 170.48816136 21.390625 172.375 C17.87994999 177.59441064 14.81235861 181.93754713 8.625 184 C7.06381572 184.06740865 5.4999748 184.08514456 3.9375 184.0625 C3.12925781 184.05347656 2.32101563 184.04445312 1.48828125 184.03515625 C0.56595703 184.01775391 0.56595703 184.01775391 -0.375 184 C-0.52195313 184.59167969 -0.66890625 185.18335938 -0.8203125 185.79296875 C-1.04460937 186.58316406 -1.26890625 187.37335938 -1.5 188.1875 C-1.81324219 189.35345703 -1.81324219 189.35345703 -2.1328125 190.54296875 C-4.50473917 195.23460986 -7.96972931 197.49209039 -12.7578125 199.22265625 C-13.99273437 199.49980469 -15.22765625 199.77695312 -16.5 200.0625 C-17.18304199 200.21750977 -17.86608398 200.37251953 -18.56982422 200.53222656 C-20.04983906 200.86303391 -21.53188889 201.18484009 -23.015625 201.49853516 C-25.47446696 202.02114085 -27.92405203 202.57835271 -30.375 203.13671875 C-32.08286101 203.50998022 -33.79118982 203.88110826 -35.5 204.25 C-36.27359863 204.42539307 -37.04719727 204.60078613 -37.84423828 204.78149414 C-51.34256333 207.56105578 -61.17358413 206.10944332 -73.375 199.75 C-86.39687247 193.13733039 -101.34806269 185.78914655 -116.375 189 C-125.17863606 191.88477355 -133.23086253 196.80891016 -141.30078125 201.26953125 C-142.29134521 201.81577148 -143.28190918 202.36201172 -144.30249023 202.92480469 C-146.23554265 203.99884723 -148.16120028 205.08633201 -150.07836914 206.18847656 C-151.39695923 206.93242676 -151.39695923 206.93242676 -152.7421875 207.69140625 C-153.51675293 208.13685791 -154.29131836 208.58230957 -155.08935547 209.04125977 C-157.84107097 210.1954989 -159.42626737 210.54743786 -162.375 210 C-165.82827052 206.57224028 -167.90543121 202.38030101 -170.0625 198.06640625 C-170.40163422 197.40062057 -170.74076843 196.7348349 -171.09017944 196.0488739 C-171.81448509 194.62618445 -172.53637721 193.20226407 -173.25604248 191.77722168 C-175.15002705 188.02851039 -177.06320737 184.28963363 -178.9765625 180.55078125 C-179.35559723 179.80943939 -179.73463196 179.06809753 -180.12515259 178.30429077 C-183.23733162 172.23271133 -186.45668685 166.22535904 -189.75 160.25 C-190.6901219 158.53516597 -191.63022633 156.82032237 -192.5703125 155.10546875 C-194.0259931 152.45320427 -195.48422787 149.80246096 -196.94824219 147.15478516 C-198.52162314 144.29830965 -200.07504814 141.4317412 -201.625 138.5625 C-202.10372559 137.70366211 -202.58245117 136.84482422 -203.07568359 135.95996094 C-203.50961426 135.14946289 -203.94354492 134.33896484 -204.390625 133.50390625 C-204.77508789 132.80080322 -205.15955078 132.0977002 -205.55566406 131.37329102 C-206.65208213 128.19740303 -206.50341146 125.33237845 -206.375 122 C-205.58440186 121.57702637 -204.79380371 121.15405273 -203.97924805 120.71826172 C-200.9914296 119.11949187 -198.0038258 117.52032225 -195.01635742 115.92089844 C-193.73356302 115.23421954 -192.450688 114.54769122 -191.16772461 113.86132812 C-190.54969971 113.53068359 -189.9316748 113.20003906 -189.29492188 112.859375 C-188.67986282 112.53055832 -188.06480377 112.20174164 -187.43110657 111.86296082 C-186.18711612 111.1958594 -184.94460127 110.5259994 -183.70353699 109.85346985 C-180.96338588 108.37024213 -178.21990519 106.92516941 -175.41333008 105.57104492 C-167.41624753 101.61512133 -161.75645817 95.92971678 -155.6875 89.5625 C-153.73010524 87.53824071 -151.76592932 85.52063633 -149.80078125 83.50390625 C-149.33061081 83.01946045 -148.86044037 82.53501465 -148.37602234 82.03588867 C-144.55723588 78.12446727 -140.5525674 74.5191869 -136.375 71 C-135.29120066 70.05149566 -134.20910159 69.10104419 -133.12890625 68.1484375 C-104.9444051 43.55934564 -73.8685706 25.73843373 -40.30517578 9.42578125 C-38.3235125 8.4615325 -36.34539553 7.48996678 -34.37060547 6.51171875 C-31.44521708 5.06783505 -28.50671199 3.65503162 -25.5625 2.25 C-24.69786133 1.81913086 -23.83322266 1.38826172 -22.94238281 0.94433594 C-15.48841902 -2.53610286 -7.54447886 -4.03807305 0 0 Z M-53.9375 128.625 C-56.23558751 134.02050981 -55.41792963 138.05198559 -53.49609375 143.484375 C-48.46071958 154.78326338 -39.73573594 161.5572541 -28.375 166 C-24.71852747 166.95560393 -21.33413527 167.10794139 -17.5625 167.0625 C-16.58667969 167.05347656 -15.61085937 167.04445312 -14.60546875 167.03515625 C-13.86941406 167.02355469 -13.13335937 167.01195312 -12.375 167 C-12.07207031 166.24976563 -11.76914063 165.49953125 -11.45703125 164.7265625 C-9.33937685 159.55296991 -7.17346242 154.53758081 -4.5 149.625 C-3.03005502 146.69447276 -2.38010024 145.06630307 -2.125 141.75 C-5.17605595 135.03767692 -12.31713391 131.66343573 -18.75 128.75 C-19.45382813 128.41226563 -20.15765625 128.07453125 -20.8828125 127.7265625 C-31.36767508 122.86679043 -44.92423005 119.3918942 -53.9375 128.625 Z " fill="#000000" transform="translate(238.375,63)"/>
</svg>
